<?xml version="1.0" encoding="UTF-8" standalone="no"?>
<!-- Generator: Adobe Illustrator 27.5.0, SVG Export Plug-In . SVG Version: 6.00 Build 0)  -->

<svg
   version="1.1"
   id="Layer_1"
   x="0px"
   y="0px"
   viewBox="0 0 4000 4000"
   style="enable-background:new 0 0 4000 4000;"
   xml:space="preserve"
   sodipodi:docname="apple.svg"
   inkscape:version="1.4.2 (f4327f4, 2025-05-13)"
   xmlns:inkscape="http://www.inkscape.org/namespaces/inkscape"
   xmlns:sodipodi="http://sodipodi.sourceforge.net/DTD/sodipodi-0.dtd"
   xmlns="http://www.w3.org/2000/svg"
   xmlns:svg="http://www.w3.org/2000/svg"><defs
   id="defs18">

		</defs><sodipodi:namedview
   id="namedview18"
   pagecolor="#ffffff"
   bordercolor="#000000"
   borderopacity="0.25"
   inkscape:showpageshadow="2"
   inkscape:pageopacity="0.0"
   inkscape:pagecheckerboard="0"
   inkscape:deskcolor="#d1d1d1"
   inkscape:zoom="0.27329677"
   inkscape:cx="1910.0116"
   inkscape:cy="1794.7523"
   inkscape:window-width="1920"
   inkscape:window-height="991"
   inkscape:window-x="-9"
   inkscape:window-y="-9"
   inkscape:window-maximized="1"
   inkscape:current-layer="g18" />
<g
   id="g18">
	
	<path
   style="fill:#07e951;fill-opacity:1"
   d="m 2443.24,951.882 c 14.836,36.179 -62.545,55.527 -138.912,96.228 -76.367,40.7 -140.763,73.803 -153.473,49.954 -12.71,-23.849 32.783,-81.536 109.15,-122.237 76.367,-40.699 172.982,-48.949 183.235,-23.945 z"
   id="path12" /><path
   id="path13"
   style="fill:#a04618"
   d="M 1871.5938 1005 C 1846.4301 1005.0462 1812.3401 1026.9008 1790.3242 1056.7422 C 1813.6587 1026.5924 1849.4321 1003.5975 1876.0957 1005.2383 C 1874.6316 1005.0756 1873.129 1004.9972 1871.5938 1005 z M 1876.0957 1005.2383 C 1956.2411 1050.022 1844.3874 1173.9747 1785.6113 1151.8398 C 1909.4707 1225.6407 1964.6661 1347.5362 1960.875 1508.2539 C 1960.3623 1529.9906 1958.7698 1552.4363 1956.123 1575.5703 C 1975.9308 1577.8933 1996.5241 1577.7011 2017.5879 1575.9922 C 2025.0703 1556.1341 2031.6273 1532.8186 2036.8535 1507.1133 C 2069.7136 1345.4922 2049.9173 1089.4628 1876.0957 1005.2383 z " /><path
   style="enable-background:new 0 0 4000 4000;fill:#c97b59"
   d="m 1876.095,1005.239 c 85.241,47.631 -46.707,184.818 -100.988,140.55 -36.309,-54.658 49.394,-143.725 100.988,-140.55 z"
   id="path15" /><path
   id="path100"
   style="fill:#ef492e"
   inkscape:label="path17"
   d="M 2278.4238 1378.5078 C 2207.1247 1378.4295 2130.6996 1385.6127 2049.4492 1400.7168 C 2047.9093 1438.5451 2043.4383 1474.7234 2036.8535 1507.1113 C 2095.1486 1493.98 2197.9287 1473.2682 2218.1094 1485.4219 C 2246.6094 1502.6379 2202.2031 1561.6895 2202.2031 1561.6895 C 2142.5231 1608.1945 2074.1838 1633.5985 1996.3418 1635.8555 C 1918.4478 1633.5985 1850.1065 1608.1945 1790.4785 1561.6895 C 1790.4785 1561.6895 1746.0722 1502.6379 1774.5742 1485.4219 C 1795.2802 1472.9529 1902.9401 1495.0821 1960.2891 1508.1211 C 1960.4841 1508.1654 1960.6798 1508.2103 1960.875 1508.2539 C 1961.768 1470.4065 1959.3892 1434.7116 1953.6133 1401.291 C 1380.1499 1293.464 1046.1322 1579.349 1056.7656 2027.8262 C 1062.0146 2157.1602 1085.7934 2298.043 1130.5664 2434.043 C 1227.0414 2727.039 1421.1993 2997.3575 1738.6543 3080.1855 C 1804.7913 3092.2585 1860.4823 3090.9984 1920.3203 3062.2344 C 1926.7243 3059.1374 1933.1809 3056.043 1939.7949 3053.418 C 1960.8429 3044.967 1979.057 3040.661 2000 3040.084 C 2020.943 3040.662 2039.1043 3044.967 2060.1523 3053.418 C 2066.8183 3056.042 2073.2237 3059.1374 2079.6797 3062.2344 C 2139.5177 3090.9984 2195.209 3092.2585 2261.293 3080.1855 C 2726.138 2958.8825 2926.5934 2435.7202 2943.2324 2027.8262 C 2947.7994 1834.7182 2888.4876 1671.7397 2773.6406 1557.4707 C 2660.0896 1444.3318 2492.3211 1378.7427 2278.4238 1378.5078 z M 1548.9688 1646.6133 C 1586.3554 1644.5356 1622.6904 1651.4803 1655.7656 1668.5723 C 1788.0666 1736.9403 1746.7027 1918.2721 1554.0977 2042.1641 C 1411.3017 2134.0171 1388.2005 2327.8035 1309.4375 2312.8535 C 1163.1275 2285.0815 1148.501 2062.8326 1243.75 1878.5156 C 1315.1868 1740.2779 1436.8083 1652.8462 1548.9688 1646.6133 z " /><path
   id="path20"
   style="fill:#3ac202;fill-opacity:1"
   inkscape:label="path50"
   d="M 2444.5938 902.60547 C 2163.1756 902.78579 2048.8224 1087.527 2043.6191 1278.332 C 2285.7521 1518.26 2786.7094 1277.6491 2707.3984 916.99609 L 2666.8242 934.16016 C 2583.376 912.35072 2509.5364 902.56386 2444.5938 902.60547 z M 2400.8926 937.73828 C 2423.4048 937.80454 2439.3954 942.50631 2443.2402 951.88281 C 2458.0762 988.06181 2380.6951 1007.4084 2304.3281 1048.1094 C 2227.9611 1088.8094 2163.5655 1121.9135 2150.8555 1098.0645 C 2138.1455 1074.2155 2183.6389 1016.5272 2260.0059 975.82617 C 2307.7352 950.3893 2363.3723 937.62784 2400.8926 937.73828 z " />
<path
   style="fill:#feadac"
   d="m 1554.0984,2042.1648 c -142.796,91.853 -165.898,285.639 -244.661,270.689 -146.31,-27.772 -160.936,-250.022 -65.687,-434.339 95.249,-184.317 279.715,-278.311 412.016,-209.943 132.301,68.368 90.937,249.701 -101.668,373.593 z"
   id="path3" /></g>
</svg>
