<?xml version="1.0" encoding="UTF-8" standalone="no"?>
<!-- Generator: Adobe Illustrator 18.0.0, SVG Export Plug-In . SVG Version: 6.00 Build 0)  -->

<svg
   version="1.1"
   id="Capa_1"
   x="0px"
   y="0px"
   viewBox="0 0 52.975 52.975"
   style="enable-background:new 0 0 52.975 52.975;"
   xml:space="preserve"
   sodipodi:docname="candy.svg"
   inkscape:version="1.4.2 (f4327f4, 2025-05-13)"
   xmlns:inkscape="http://www.inkscape.org/namespaces/inkscape"
   xmlns:sodipodi="http://sodipodi.sourceforge.net/DTD/sodipodi-0.dtd"
   xmlns="http://www.w3.org/2000/svg"
   xmlns:svg="http://www.w3.org/2000/svg"><defs
   id="defs17">
	
	
	

</defs><sodipodi:namedview
   id="namedview17"
   pagecolor="#ffffff"
   bordercolor="#000000"
   borderopacity="0.25"
   inkscape:showpageshadow="2"
   inkscape:pageopacity="0.0"
   inkscape:pagecheckerboard="0"
   inkscape:deskcolor="#d1d1d1"
   inkscape:zoom="14.591789"
   inkscape:cx="22.889585"
   inkscape:cy="34.094517"
   inkscape:window-width="1920"
   inkscape:window-height="991"
   inkscape:window-x="-9"
   inkscape:window-y="-9"
   inkscape:window-maximized="1"
   inkscape:current-layer="Capa_1" />
<circle
   style="enable-background:new 0 0 52.975 52.975;fill:#3DABEF"
   cx="25.8"
   cy="26.757"
   r="4.5"
   id="circle2" /><path
   id="path2"
   style="fill:#b61d2b;fill-opacity:1"
   d="m 22.660156,14.427734 c -1.792,0.933 -3.528562,2.186766 -5.101562,3.759766 -1.701,1.701 -3.028469,3.594969 -3.980469,5.542969 l 3.757813,3.755859 c 0.164999,1.926 0.979125,3.80725 2.453124,5.28125 1.474001,1.474 3.356204,2.290078 5.283204,2.455078 l 3.96289,3.962891 c 1.948,-0.951 3.841969,-2.276516 5.542969,-3.978516 1.572,-1.572 2.831672,-3.308609 3.763672,-5.099609 L 34.265625,26.03125 c -0.163,-1.928 -0.980078,-3.810156 -2.455078,-5.285156 -1.475,-1.475 -3.357156,-2.289125 -5.285156,-2.453125 z m 3.140625,7.830078 a 4.5,4.5 0 0 1 4.5,4.5 4.5,4.5 0 0 1 -4.5,4.5 4.5,4.5 0 0 1 -4.5,-4.5 4.5,4.5 0 0 1 4.5,-4.5 z" /><path
   style="fill:#31d00c;fill-opacity:1"
   d="m 13.599609,23.751953 c -1.921492,3.945654 -2.303203,8.114056 -0.910156,11.400391 l -8.9199218,1.322265 c -1.2709999,0.489 -2.7524843,2.608547 -3.64648432,4.060547 -0.305,0.495 0.16570312,1.102688 0.72070312,0.929688 l 1.6015625,-0.498047 c 0.478,-0.149 0.9282969,0.299344 0.7792969,0.777344 l -0.625,2.007812 c -0.149,0.478 0.3012968,0.926344 0.7792968,0.777344 L 5.3828125,43.90625 c 0.478,-0.149 0.9263438,0.299344 0.7773437,0.777344 l -0.6230468,2.005859 c -0.149,0.478 0.2993437,0.926344 0.7773437,0.777344 L 8.3203125,46.84375 c 0.478,-0.149 0.9263438,0.299344 0.7773437,0.777344 l -0.6230468,2.005859 c -0.149,0.478 0.2993437,0.926344 0.7773437,0.777344 l 2.0058589,-0.625 c 0.478,-0.149 0.926344,0.301297 0.777344,0.779297 l -0.5,1.601562 c -0.173,0.555 0.434688,1.025703 0.929688,0.720703 1.452,-0.895 3.5745,-2.375484 4.0625,-3.646484 l 1.36914,-9.046875 c 3.242516,1.257518 7.287508,0.847566 11.121094,-1.019531 l -3.945312,-3.945313 c -1.927,-0.165 -3.809203,-0.981078 -5.283204,-2.455078 -1.473999,-1.474 -2.288125,-3.35525 -2.453124,-5.28125 z"
   id="path18" /><path
   style="fill:#31d00c;fill-opacity:1"
   d="m 40.84375,0 c -0.09235,0.00580664 -0.186406,0.03407812 -0.277344,0.08789062 -1.437,0.851 -3.559719,2.26735938 -4.011718,3.44335938 l -1.984376,9.808594 c -3.41559,-1.468489 -7.794969,-1.01241 -11.886718,1.111328 l 3.841797,3.841797 c 1.928,0.164 3.810156,0.978125 5.285156,2.453125 1.475,1.475 2.292078,3.357156 2.455078,5.285156 l 4.072266,4.072266 c 2.072342,-3.983705 2.53265,-8.245447 1.203125,-11.623047 l 9.927734,-2.03125 c 1.147,-0.441 2.523859,-2.470297 3.380859,-3.904297 0.312,-0.523 -0.186578,-1.153656 -0.767578,-0.972656 l -1.548828,0.482422 c -0.477,0.148998 -0.92339,-0.299344 -0.775391,-0.777344 l 0.625,-2.0097659 c 0.149001,-0.477 -0.299343,-0.9253437 -0.777343,-0.7773437 l -2.009766,0.6269531 c -0.477,0.149 -0.925344,-0.2993439 -0.777344,-0.7773437 l 0.626953,-2.0097657 c 0.149001,-0.477 -0.299343,-0.9253437 -0.777343,-0.7773437 l -2.009766,0.6269531 c -0.477,0.149 -0.925344,-0.2993439 -0.777344,-0.7773437 l 0.626953,-2.0097657 c 0.149001,-0.477 -0.299343,-0.9253437 -0.777343,-0.7773437 l -2.00586,0.6289062 c -0.477,0.149 -0.925343,-0.2973906 -0.777343,-0.7753906 L 41.46875,0.79882812 C 41.60525,0.36089062 41.243916,-0.02516211 40.84375,0 Z"
   id="path1" />















</svg>
