<?xml version="1.0" encoding="UTF-8" standalone="no"?>
<!-- Uploaded to: SVG Repo, www.svgrepo.com, Generator: SVG Repo Mixer Tools -->

<svg
   width="800px"
   height="800px"
   viewBox="0 0 1024 1024"
   class="icon"
   version="1.1"
   id="svg15"
   sodipodi:docname="car.svg"
   inkscape:version="1.4.2 (f4327f4, 2025-05-13)"
   xmlns:inkscape="http://www.inkscape.org/namespaces/inkscape"
   xmlns:sodipodi="http://sodipodi.sourceforge.net/DTD/sodipodi-0.dtd"
   xmlns="http://www.w3.org/2000/svg"
   xmlns:svg="http://www.w3.org/2000/svg">
  <defs
     id="defs15" />
  <sodipodi:namedview
     id="namedview15"
     pagecolor="#ffffff"
     bordercolor="#000000"
     borderopacity="0.25"
     inkscape:showpageshadow="2"
     inkscape:pageopacity="0.0"
     inkscape:pagecheckerboard="0"
     inkscape:deskcolor="#d1d1d1"
     inkscape:zoom="1.3664839"
     inkscape:cx="407.6155"
     inkscape:cy="532.38829"
     inkscape:window-width="1920"
     inkscape:window-height="991"
     inkscape:window-x="-9"
     inkscape:window-y="-9"
     inkscape:window-maximized="1"
     inkscape:current-layer="svg15"
     showguides="false" />
  <path
     id="path6"
     d="m 452.5,420.9 c -61,0 -152.4,26.1 -250.8,71.5 -86.3,39.8 -157.5,85.2 -177.3,113 -6.1,8.5 -7.9,16.2 -5.6,23 2,5.6 4.3,10.5 6.8,15.6 6.3,12.9 13.4,27.6 16.4,62.7 2.9,33.2 9.4,73.9 10.4,80.1 0.5,60.9 50.2,110.4 111.3,110.4 h 8.285 c -0.3232,-3.32354 -0.48506,-6.66079 -0.485,-10 -1.6e-4,-3.3057 0.15835,-6.6095 0.475,-9.9 H 163.7 c -50.4,0 -91.3,-41 -91.3,-91.3 0,-0.5 0,-1.1 -0.1,-1.6 C 72.2,784 65,740.1 62,705.1 c -3.3,-38.8 -11.6,-56 -18.3,-69.7 -2.2,-4.6 -4.1,-8.6 -5.7,-13 0.4,-1.7 4.2,-13.1 42.4,-39.8 28.7,-19.9 67.9,-42.3 110.5,-62.9 C 292.7,470.5 390.5,441 452.6,441 h 0.2 c 189.4,0 257.5,126.6 269.2,152 1.7,3.5 5.2,5.8 9.1,5.8 h 67 c 54.8,0 101.6,13.6 135.3,39.3 35.7,27.2 54.6,67.4 54.6,116.2 v 123 H 868.425 c 0.31665,3.2905 0.47516,6.5943 0.475,9.9 6e-5,3.33921 -0.1618,6.67646 -0.485,10 H 998 c 5.6,0 10,-4.5 9.8,-10 v -133 c 0,-55.3 -21.6,-100.9 -62.5,-132.1 -37.2,-28.4 -88.2,-43.4 -147.4,-43.4 H 737.2 C 718.5,541.9 642.6,420.9 452.7,420.9 Z m -74.875,456.4 c 0.31665,3.2905 0.47516,6.5943 0.475,9.9 6e-5,3.33921 -0.1618,6.67646 -0.485,10 h 285.17 c -0.3232,-3.32354 -0.48506,-6.66079 -0.485,-10 -1.6e-4,-3.3057 0.15835,-6.6095 0.475,-9.9 z"
     sodipodi:nodetypes="sccccccscccssccccccsscsscsccscscscscssccccscc"
     style="stroke:#000000;stroke-opacity:1" />
  <path
     d="M662.3 673.4H292.1c-4.2 0-7.9-2.6-9.3-6.5l-61-160.6c-1.8-4.8 0.3-10.1 4.8-12.5 97.6-49.7 169.5-72.9 226.2-72.9h0.2c201.6 0 274.7 136.3 287.3 163.7 1.7 3.7 1 8-1.7 11l-68.9 74.6c-2 2-4.6 3.2-7.4 3.2z m-363.3-20h358.9l61.3-66.4c-17.9-34.9-88.8-146.1-266.3-146.1h-0.2c-51.2 0-119.6 21.8-209.1 66.7L299 653.4z m153.7-222.5z"
     fill=""
     id="path8" />
  <path
     d="M477.2 673.4c-5.5 0-10-4.5-10-10V430.9c0-5.5 4.5-10 10-10s10 4.5 10 10v232.5c0 5.5-4.5 10-10 10z"
     fill=""
     id="path10" />
  <path
     d="M274.8 1000.5c-62.5 0-113.3-50.8-113.3-113.3s50.8-113.3 113.3-113.3 113.3 50.8 113.3 113.3-50.8 113.3-113.3 113.3z m0-206.6c-51.5 0-93.3 41.9-93.3 93.3 0 51.5 41.9 93.3 93.3 93.3 51.5 0 93.3-41.9 93.3-93.3s-41.8-93.3-93.3-93.3z"
     fill=""
     id="path12" />
  <path
     d="m 765.6,1000.5 c -62.5,0 -113.3,-50.8 -113.3,-113.3 0,-62.5 50.8,-113.3 113.3,-113.3 62.5,0 113.3,50.8 113.3,113.3 0,62.5 -50.8,113.3 -113.3,113.3 z m 0,-206.6 c -51.5,0 -93.3,41.9 -93.3,93.3 0,51.5 41.9,93.3 93.3,93.3 51.4,0 93.3,-41.9 93.3,-93.3 0,-51.4 -41.9,-93.3 -93.3,-93.3 z"
     fill=""
     id="path14"
     sodipodi:nodetypes="ssssssssss" />
</svg>
