<?xml version="1.0" encoding="UTF-8" standalone="no"?><!-- Generator: Adobe Illustrator 27.5.0, SVG Export Plug-In . SVG Version: 6.00 Build 0)  -->

<svg version="1.1" id="Capa_1" x="0px" y="0px" viewBox="0 0 2122 2122"
    style="enable-background:new 0 0 2122 2122;" xml:space="preserve" sodipodi:docname="carrot.svg"
    inkscape:version="1.4.2 (f4327f4, 2025-05-13)"
    xmlns:inkscape="http://www.inkscape.org/namespaces/inkscape"
    xmlns:sodipodi="http://sodipodi.sourceforge.net/DTD/sodipodi-0.dtd"
    xmlns="http://www.w3.org/2000/svg" xmlns:svg="http://www.w3.org/2000/svg"><defs
   id="defs35">
	</defs>
    <sodipodi:namedview id="namedview35" pagecolor="#ffffff" bordercolor="#000000"
        borderopacity="0.25" inkscape:showpageshadow="2" inkscape:pageopacity="0.0"
        inkscape:pagecheckerboard="0" inkscape:deskcolor="#d1d1d1" inkscape:zoom="0.5"
        inkscape:cx="58" inkscape:cy="1483" inkscape:window-width="1920"
        inkscape:window-height="991" inkscape:window-x="-9" inkscape:window-y="-9"
        inkscape:window-maximized="1" inkscape:current-layer="Capa_1" />
    <path id="path1" style="enable-background:new 0 0 2122 2122;display:inline;fill:#ed6b49"
        inkscape:label="path1"
        d="M 916.4707 843.24609 C 860.51754 844.43997 813.44882 864.62641 780.28711 899.60156 C 660.43511 1026.0076 261.5158 1955.2149 379.8418 2000.5059 C 498.1678 2045.7919 1193.0183 1480.9941 1286.8203 1247.5371 C 1326.1193 1149.7351 1297.8994 1035.239 1144.8574 926.25 C 1139.4435 922.395 1134.0518 918.72039 1128.6758 915.15039 C 1124.8888 912.63639 1121.1117 910.17478 1117.3457 907.80078 C 1106.7627 901.12878 1096.2681 895.02941 1085.8711 889.44141 C 1080.8891 886.76341 1075.935 884.22306 1071.002 881.78906 C 1024.8985 859.04326 981.01897 846.8697 940.98047 843.9082 L 940.97852 843.9082 C 932.63715 843.29123 924.46401 843.07554 916.4707 843.24609 z M 930.07227 862.70508 C 985.80927 862.75908 1039.5027 886.19489 1084.6797 918.83789 C 1129.8537 951.48189 1167.6623 993.08433 1205.1113 1034.3613 C 1219.4333 1050.1463 1233.7532 1065.9269 1248.0742 1081.7129 C 1254.9512 1089.2939 1262.3159 1098.3426 1260.8809 1108.4766 C 1258.3739 1126.2206 1233.0116 1128.9677 1216.5176 1121.9707 C 1200.0226 1114.9747 1183.4287 1102.7902 1166.0527 1107.1602 C 1168.3577 1133.7912 1196.8346 1148.636 1220.6836 1160.709 L 1220.6836 1160.7129 C 1244.5326 1172.7859 1270.8388 1194.6317 1264.1328 1220.5137 C 1261.6238 1230.1977 1254.6331 1237.6633 1245.8281 1242.4883 C 1243.3401 1242.9613 1240.6917 1243.2158 1237.8867 1243.2148 C 1228.8747 1243.2288 1218.625 1240.8635 1209.502 1237.9375 C 1126.842 1211.5315 1047.5065 1174.7187 973.97852 1128.6367 C 971.18152 1126.8847 967.49128 1127.7293 965.73828 1130.5273 C 963.98528 1133.3233 964.83286 1137.0146 967.63086 1138.7676 C 971.18786 1140.9956 974.8213 1143.0992 978.4043 1145.2852 C 1004.5523 1184.5622 1047.5672 1210.7672 1090.7012 1231.1152 C 1138.2792 1253.5602 1188.8599 1271.6208 1229.9219 1304.5078 C 1203.3569 1355.5588 1163.3226 1399.5241 1114.9766 1430.7441 C 1108.0126 1435.2411 1100.5742 1439.5889 1092.3262 1440.4219 C 1082.8402 1441.3869 1073.5707 1437.5895 1064.9297 1433.5605 C 1042.2067 1422.9635 1020.5127 1410.155 1000.2617 1395.373 C 993.31872 1390.307 986.24184 1384.8636 977.83984 1383.0566 C 971.39084 1381.6726 963.92283 1383.2053 959.29883 1387.5703 C 958.28683 1386.8283 957.2982 1386.0554 956.2832 1385.3164 C 953.6132 1383.3724 949.87564 1383.9609 947.93164 1386.6309 C 945.98864 1389.2999 946.57514 1393.0384 949.24414 1394.9824 C 986.33914 1421.9964 1022.1358 1450.7913 1056.4668 1481.2363 C 1057.2508 1481.9313 1058.1759 1482.2977 1059.1309 1482.5117 C 1028.5089 1522.8007 992.80894 1559.2241 953.08594 1590.5781 C 935.88994 1604.1461 915.93384 1617.3848 894.08984 1615.7578 C 877.06884 1614.4908 862.16769 1604.3669 848.17969 1594.5879 C 814.83869 1571.2689 781.49725 1547.9537 748.15625 1524.6367 C 747.78225 1523.1057 747.46205 1521.5585 747.24805 1519.9785 C 746.80505 1516.7065 743.79444 1514.4125 740.52344 1514.8555 C 737.25144 1515.2985 734.95739 1518.3081 735.40039 1521.5801 C 737.23439 1535.1191 743.75756 1546.6534 751.97656 1556.6094 C 760.21556 1566.5844 770.22197 1575.1415 779.66797 1582.9785 C 809.18797 1607.4425 838.70361 1631.91 868.22461 1656.373 C 869.00961 1657.023 869.91952 1657.3588 870.85352 1657.5488 C 856.35552 1689.0368 828.09113 1712.1326 800.82812 1733.8516 C 778.39712 1751.7226 750.96073 1770.6981 723.42773 1762.6641 C 708.42673 1758.2891 696.86092 1746.5725 683.29492 1738.8105 C 671.94092 1732.3175 656.52955 1729.3679 645.81055 1735.5039 C 643.22355 1733.6289 639.61014 1734.0783 637.61914 1736.6133 C 635.58014 1739.2083 636.03095 1742.9678 638.62695 1745.0078 L 638.62695 1745.0059 C 661.91095 1763.3009 685.19261 1781.5957 708.47461 1799.8867 C 709.45161 1800.6537 710.59409 1800.9561 711.74609 1801.0371 C 712.11209 1801.4211 712.50514 1801.7771 712.86914 1802.1621 C 693.94314 1817.4261 674.70773 1832.3108 655.17773 1846.8008 C 620.38573 1872.6138 584.66547 1897.1799 548.10547 1920.4199 C 536.67247 1927.6889 525.70292 1935.981 513.41992 1941.793 C 496.52492 1949.792 478.72534 1955.5573 460.15234 1957.9043 C 460.17534 1957.4033 460.24672 1956.9066 460.13672 1956.3926 C 459.44772 1953.1646 456.27097 1951.1079 453.04297 1951.7969 C 451.77597 1952.0659 450.49322 1952.1953 449.19922 1952.1953 C 443.78922 1952.2173 438.05937 1949.818 433.73438 1945.877 C 429.39038 1941.94 426.60356 1936.669 426.35156 1931.293 C 426.22756 1928.806 424.59667 1926.7558 422.38867 1925.9668 C 422.88167 1923.2538 423.52331 1920.5618 424.19531 1917.9648 C 438.19031 1863.8948 456.10486 1810.8365 477.75586 1759.3535 C 487.74386 1766.9445 501.99014 1768.4833 513.36914 1763.1973 C 511.50814 1745.9063 483.98358 1739.9853 483.26758 1722.6113 C 483.05758 1717.5353 485.37377 1712.7365 487.63477 1708.1855 C 493.85977 1695.6535 500.08745 1683.1161 506.31445 1670.5801 C 509.20445 1671.9941 512.7087 1670.8982 514.2207 1668.0332 C 517.9987 1660.8422 521.72272 1654.0947 526.63672 1649.0547 C 528.99272 1646.6197 531.75772 1644.5239 534.63672 1643.0879 C 537.52272 1641.6459 540.48381 1640.8652 543.38281 1640.8652 L 543.70703 1640.8652 L 543.75781 1640.8652 L 543.76758 1640.8672 C 547.63658 1640.9572 551.43391 1642.3748 555.37891 1644.8008 C 559.30591 1647.2108 563.23652 1650.5885 567.10352 1654.0645 C 576.00452 1662.0455 584.90659 1670.0297 593.80859 1678.0117 C 596.26659 1680.2157 600.046 1680.0107 602.25 1677.5527 C 604.454 1675.0947 604.24706 1671.3143 601.78906 1669.1113 C 597.32106 1665.1053 592.85372 1661.0988 588.38672 1657.0918 C 592.63172 1656.2208 596.01047 1653.7063 596.48047 1649.2793 C 596.99947 1644.3783 593.41555 1640.0554 589.81055 1636.6934 C 568.28255 1616.6354 534.45536 1601.2835 534.81836 1571.8555 C 534.93536 1562.5065 538.88294 1553.6723 542.83594 1545.1953 C 565.25994 1497.1213 590.36047 1450.2969 617.98047 1405.0059 C 622.61847 1397.4009 629.02673 1388.8834 637.92773 1389.2734 C 644.66073 1389.5704 649.88366 1394.9691 654.59766 1399.7871 C 691.08466 1437.1021 741.63384 1460.3243 793.71484 1463.6953 C 749.94584 1435.1213 709.38983 1401.6345 673.04883 1364.0605 C 662.80983 1353.4785 652.23739 1340.8056 653.15039 1326.1016 C 653.72739 1316.8256 658.86914 1308.5285 663.99414 1300.7715 C 697.42514 1250.1505 736.60764 1203.3601 780.43164 1161.4121 C 819.66264 1192.1701 865.98547 1213.8424 914.85547 1223.8594 C 918.08947 1224.5224 921.24716 1222.4391 921.91016 1219.2051 C 922.36616 1216.9751 921.45912 1214.8377 919.82812 1213.4727 C 920.41312 1212.7227 920.9437 1211.8963 921.3457 1210.9062 C 886.4297 1180.0273 851.51366 1149.1495 816.59766 1118.2695 C 806.15166 1109.0375 795.4142 1099.409 789.6582 1086.707 C 776.8252 1058.397 792.45967 1027.3667 811.38867 1001.1777 C 811.85867 1001.7187 812.40808 1002.2065 813.08008 1002.5625 C 815.99808 1004.1075 819.61516 1002.9932 821.16016 1000.0762 C 828.68316 985.82717 841.99734 974.51825 857.27734 969.40625 C 863.75934 967.22825 870.62877 966.14062 877.50977 966.14062 C 886.83977 966.13963 896.17803 968.1425 904.58203 972.0625 C 914.84103 976.8175 924.26125 984.61384 934.28125 992.33984 C 944.30325 1000.0218 955.02166 1007.6976 968.34766 1011.2246 C 971.53966 1012.0656 974.80744 1010.1578 975.64844 1006.9668 C 976.48844 1003.7738 974.58263 1000.5051 971.39062 999.66406 C 968.03663 998.78906 964.80481 997.50484 961.63281 995.96484 C 961.85081 995.72584 962.10297 995.54672 962.29297 995.26172 C 965.21197 990.89172 961.69166 985.19014 958.22266 981.24414 C 940.92366 961.57514 921.16387 944.0752 899.54688 929.2832 C 890.39987 923.0222 880.27995 916.45041 876.75195 905.94141 C 872.47895 893.21541 880.07061 878.79377 891.34961 871.50977 C 902.63061 864.23077 916.64727 862.69508 930.07227 862.70508 z " />
    <path id="path10" style="enable-background:new 0 0 2122 2122;display:inline;fill:#63b32f"
        d="m 1158.2664,244.0874 c -25.698,19.367 -37.575,49.7332 -45.545,81.6152 0.289,-3.259 -2.0895,-6.1526 -5.3535,-6.4766 -3.285,-0.327 -6.2111,2.0725 -6.5371,5.3575 -10.863,109.48 -16.3027,219.4966 -16.3027,329.5156 0,38.495 0.8623,76.89024 2.1953,115.36324 0.4271,3.37924 2.634,5.22989 5.625,5.46289 -0.4269,5.319 -1.109,10.77787 -1.582,15.83987 -0.1306,-0.1942 -1.0303,13.9926 -3.9454,31.9922 -3.383,20.884 -10.2454,41.0713 -17.4824,58.9023 4.933,2.434 9.8872,4.9744 14.8692,7.6524 10.397,5.588 20.8916,11.6874 31.4746,18.3594 3.766,2.374 7.5431,4.8356 11.3301,7.3496 13.4637,-11.772 29.105,-23.9282 46.414,-33.2422 8.191,-4.408 17.2595,-8.8091 26.9375,-13.2031 6e-4,10e-5 0,-2e-4 0,0 8.486,-3.854 17.4305,-7.7039 26.8515,-11.5469 1.17,2.655 4.0398,4.1969 6.9278,3.4199 v 0 c 134.868,-36.313 265.9041,-86.8322 390.2461,-150.4492 2.938,-1.503 4.1006,-5.103 2.5976,-8.043 -1.504,-2.938 -5.1069,-4.1006 -8.0449,-2.5976 -4.951,2.533 -9.9304,5.0109 -14.9024,7.5019 25.082,-16.528 47.533,-36.0322 56.584,-64.0332 -25.186,24.599 -41.1347,33.0733 -69.8437,48.3223 -131.1353,69.6646 -279.1938,93.6856 -409.4063,157.9257 -7e-4,4e-4 0,0 0,0 -18.2094,8.9838 -36.0522,18.7991 -53.4687,29.5918 8.931,-20.412 20.5871,-44.0156 36.5371,-64.4746 6.161,-7.903 13.1902,-16.1788 20.8262,-24.7148 7.6122,-1.1939 15.221,-1.9389 22.8222,-2.2949 v 0 c 1.753,-5.798 3.4074,-11.6278 4.9844,-17.4688 35.032,-29.717 69.2897,-60.337 102.8887,-91.666 -1.517,6.624 -3.3596,13.1639 -5.2676,19.4199 10.277,-14.873 23.2904,-32.5091 36.4824,-48.9121 17.8877,-17.1757 35.5348,-34.598 52.9824,-52.2207 45.399,-45.853 89.3821,-93.1056 131.6621,-141.8496 2.163,-2.493 1.8934,-6.2686 -0.5996,-8.4316 -2.494,-2.163 -6.2686,-1.8934 -8.4316,0.5996 -6.311,7.276 -12.7596,14.4305 -19.1426,21.6445 21.289,-30.736 40.1002,-63.7068 36.3672,-100.0918 -14.112,35.098 -26.123,50.3376 -47.748,77.7676 -52.606,66.735 -115.5415,122.8146 -178.0215,178.7226 -27.5418,24.6448 -54.9929,49.2587 -81.4336,74.7344 -13.012,12.537 -25.7794,25.2827 -38.1914,38.3457 -11.7616,7.8407 -23.5112,15.9531 -34.7168,24.5957 -0.358,5.461 -0.9885,10.8637 -1.8125,16.2227 -16.646,19.861 -32.2859,40.6392 -46.6739,62.5742 30.4823,-170.61452 -4.5559,-311.49816 22.3204,-509.1758 5.399,-34.509 8.3983,-53.6823 24.5293,-87.9043 z m 245.129,351.0468 c -1.0621,0.3267 -2.1403,0.7256 -3.2344,1.1993 1.0947,-0.4741 2.1756,-0.8723 3.2383,-1.1993 0,4e-4 0,-3e-4 0,0 z"
        sodipodi:nodetypes="ccccsccccccscssccssscscccsccscsscccccscccccsscccccccccccc" />
    <path style="enable-background:new 0 0 2122 2122;fill:#00ff00"
        d="m 1316.059,466.444 c 3.279,12.17 -3.661,24.521 -10.417,35.162 -25.245,39.766 -51.829,78.679 -79.693,116.653 24.911,-18.134 55.61,-37.199 84.467,-26.392 3.055,1.145 6.21,2.826 7.569,5.788 1.25,2.729 0.697,5.91 0.01,8.823 -1.256,5.295 -2.952,10.375 -4.867,15.346 0.461,0.832 0.922,1.665 1.329,2.518 62.48,-55.908 125.414,-111.987 178.02,-178.722 21.625,-27.43 33.637,-42.67 47.749,-77.768 3.733,36.385 -15.078,69.355 -36.367,100.091 6.383,-7.214 12.831,-14.369 19.142,-21.645 2.163,-2.493 5.938,-2.762 8.432,-0.599 2.493,2.163 2.762,5.939 0.599,8.432 -42.28,48.744 -86.262,95.997 -131.661,141.85 17.515,-7.584 31.117,4.301 34.719,15.32 3.798,11.615 -2.641,50.811 -10.88,66.251 26.407,-34.431 52.811,-68.862 79.218,-103.293 15.99,-20.857 33.556,-42.845 58.614,-50.762 10.144,-3.206 21.742,-3.186 30.641,2.646 6.879,4.508 11.136,10.461 13.626,16.974 16.719,-10.533 32.585,-22.418 47.31,-35.595 13.191,-11.81 25.785,-25.043 32.511,-41.418 6.728,-16.38 6.57,-36.546 -4.327,-50.504 -11.152,-14.29 -31.179,-19.186 -49.15,-16.814 -17.97,2.368 -34.482,10.831 -50.582,19.162 23.932,-40.21 33.05,-89.018 25.248,-135.152 -2.782,-16.458 -7.869,-32.998 -18.346,-45.987 -10.477,-12.994 -27.169,-21.861 -43.695,-19.547 -24.999,3.503 -39.893,29.115 -50.017,52.239 -15.61,35.644 -28.884,72.311 -39.715,109.69 2.745,-20.804 1.118,-42.168 -4.748,-62.314 -4.304,-14.792 -12.913,-30.66 -27.975,-33.896 -11.177,-2.402 -22.689,3.128 -31.276,10.67 -21.211,18.641 -28.957,47.873 -35.649,75.303 -11.053,45.296 -14.288,119.249 -14.288,119.249 0,0 -12.926,-65.729 -40.307,-82.84 -20.965,-13.101 -41.988,21.082 -45.191,33.276 -1.827,6.948 -3.748,13.815 -5.701,20.653 10.678,-6.789 22.441,-12.652 35.048,-12.867 13.134,-0.224 27.187,7.337 30.605,20.019 z"
        id="path35" />
    <path style="enable-background:new 0 0 2122 2122;fill:#00ff00;fill-opacity:0.98209"
        d="m 1086.734,769.208 c -1.333,-38.473 -2,-76.967 -2,-115.462 0,-110.019 5.44,-220.035 16.303,-329.515 0.326,-3.285 3.253,-5.685 6.538,-5.358 3.264,0.324 5.641,3.218 5.352,6.477 7.97,-31.882 19.848,-62.248 45.546,-81.615 -16.131,34.222 -19.13,53.394 -24.529,87.903 -24.66,157.633 2.976,316.415 -16.503,471.208 12.043,-15.199 26.769,-28.567 42.666,-40.828 11.206,-8.643 22.957,-16.755 34.719,-24.596 12.412,-13.063 25.179,-25.809 38.191,-38.346 26.441,-25.476 53.893,-50.09 81.435,-74.735 -0.407,-0.853 -0.868,-1.686 -1.329,-2.518 1.915,-4.971 3.611,-10.051 4.867,-15.346 0.692,-2.913 1.245,-6.095 -0.01,-8.823 -1.359,-2.962 -4.514,-4.643 -7.569,-5.788 -28.857,-10.806 -59.557,8.258 -84.467,26.392 27.863,-37.974 54.448,-76.887 79.693,-116.653 6.755,-10.641 13.695,-22.991 10.417,-35.162 -3.418,-12.682 -17.472,-20.243 -30.604,-20.019 -12.608,0.215 -24.37,6.079 -35.048,12.867 -0.443,0.281 -0.895,0.553 -1.334,0.838 -15.785,10.217 -30.292,22.411 -43.076,36.204 25.683,-38.913 51.369,-77.822 77.052,-116.736 15.557,-23.561 31.712,-49.125 30.947,-77.349 -0.309,-11.43 -4.09,-23.625 -13.452,-30.187 -12.616,-8.838 -30.105,-4.356 -43.875,2.548 -18.755,9.408 -35.525,22.748 -48.904,38.909 20.029,-33.364 37.878,-68.034 53.389,-103.722 10.063,-23.152 18.706,-51.493 4.268,-72.2 -9.544,-13.686 -27.401,-19.888 -44.049,-18.733 -16.648,1.155 -32.234,8.682 -46.19,17.832 -39.125,25.667 -68.699,65.549 -81.895,110.441 -4.845,-17.467 -9.871,-35.328 -20.358,-50.11 -10.487,-14.786 -27.701,-26.134 -45.759,-24.594 -17.642,1.511 -32.534,15.113 -39.963,31.181 -7.428,16.073 -8.561,34.305 -8.244,52.01 0.916,50.977 13.018,101.725 35.208,147.63 -18.689,-14.924 -38.429,-28.531 -59.02,-40.697 -13.325,-7.868 -28.117,-15.366 -43.498,-13.666 -16.68,1.851 -30.774,14.777 -37.281,30.246 -6.505,15.469 -6.346,33.037 -3.128,49.505 9.705,49.666 44.731,89.983 78.441,127.727 -15.652,-12.765 -34.746,-26.344 -54.251,-21.106 -20.19,5.418 -30.236,30.144 -25.905,50.597 4.334,20.449 19.187,36.965 34.779,50.889 60.437,53.965 141.549,86.598 186.663,153.664 0.473,-5.062 0.91,-10.227 1.29,-15.546 -2.991,-0.233 -5.423,-2.589 -5.528,-5.658 z"
        id="path36" />
    <path style="enable-background:new 0 0 2122 2122;fill:#00ff00"
        d="m 1763.1174,736.64662 c -4.141,-16.356 -19.361,-28.039 -35.556,-32.765 -16.195,-4.721 -33.432,-3.707 -50.271,-2.655 35.469,-25.267 61.544,-63.415 72.209,-105.637 3.803,-15.06 5.676,-31.06 1.627,-46.051 -4.051,-14.996 -14.94,-28.814 -29.885,-33.042 -22.604,-6.397 -44.899,9.832 -62.197,25.729 -26.668,24.502 -57.169,52.989 -57.169,52.989 0,0 12.636,-29.22 4.04,-51.708 -2.49,-6.513 -6.747,-12.466 -13.626,-16.974 -8.899,-5.832 -20.497,-5.852 -30.641,-2.646 -25.057,7.917 -42.624,29.905 -58.614,50.762 -26.407,34.431 -52.811,68.863 -79.218,103.293 8.239,-15.44 14.677,-54.635 10.88,-66.251 -3.602,-11.019 -17.204,-22.905 -34.719,-15.32 -17.448,17.623 -35.097,35.046 -52.985,52.222 -13.192,16.403 -26.206,34.038 -36.483,48.911 1.908,-6.256 3.75,-12.796 5.267,-19.42 -33.599,31.329 -67.855,61.95 -102.887,91.667 -1.577,5.841 -3.232,11.671 -4.985,17.469 -6.636,21.954 -14.848,43.28 -26.716,61.893 130.213,-64.241 278.274,-88.263 409.41,-157.928 28.709,-15.249 44.658,-23.722 69.844,-48.321 -9.051,28.001 -31.503,47.504 -56.585,64.032 4.972,-2.491 9.952,-4.969 14.903,-7.502 2.938,-1.503 6.54,-0.34 8.044,2.598 1.503,2.94 0.34,6.541 -2.598,8.044 -124.342,63.617 -255.377,114.135 -390.245,150.448 v 0.002 c -2.888,0.777 -5.758,-0.764 -6.928,-3.419 -9.421,3.843 -18.366,7.692 -26.852,11.546 72.712,19.269 126.1,80.673 191.958,117.404 16.994,9.476 36.039,17.51598 55.345,15.09898 19.306,-2.41198 37.992,-18.77198 36.616,-38.18198 -1.33,-18.748 -19.084,-31.406 -35.074,-41.286 43.456,18.158 89.573,36.697 136.209,30.114 15.464,-2.183 30.967,-7.391 42.589,-17.822 11.625,-10.427 18.704,-26.758 15.252,-41.988 -3.182,-14.051 -14.278,-24.774 -25.257,-34.099 -16.965,-14.412 -34.94,-27.63 -53.754,-39.528 47.128,5.549 95.444,0.75 140.557,-13.963 15.666,-5.106 31.357,-11.654 43.23,-23.079 11.877,-11.427 19.307,-28.665 15.265,-44.636 z"
        id="path37" />
    <path style="enable-background:new 0 0 2122 2122;fill:#f0856a"
        d="m 1220.683,1160.709 c -23.849,-12.073 -52.326,-26.918 -54.631,-53.549 17.376,-4.37 33.971,7.815 50.466,14.811 16.494,6.997 41.856,4.249 44.363,-13.495 1.435,-10.134 -5.929,-19.182 -12.806,-26.763 -14.321,-15.786 -28.641,-31.567 -42.963,-47.352 -37.449,-41.277 -75.259,-82.879 -120.433,-115.523 -45.177,-32.643 -98.87,-56.078 -154.607,-56.132 -13.425,-0.01 -27.442,1.525 -38.723,8.804 -11.279,7.284 -18.87,21.705 -14.597,34.431 3.528,10.509 13.647,17.082 22.794,23.343 21.617,14.792 41.378,32.292 58.677,51.961 3.469,3.946 6.989,9.647 4.07,14.017 -0.19,0.285 -0.442,0.464 -0.66,0.703 3.172,1.54 6.403,2.824 9.757,3.699 3.192,0.841 5.099,4.109 4.259,7.302 -0.841,3.191 -4.11,5.099 -7.302,4.258 -13.326,-3.527 -24.043,-11.203 -34.065,-18.885 -10.02,-7.726 -19.441,-15.522 -29.7,-20.277 -8.404,-3.92 -17.742,-5.922 -27.072,-5.921 -6.881,0 -13.75,1.088 -20.232,3.266 -15.28,5.112 -28.595,16.42 -36.118,30.669 v 10e-4 c -1.545,2.917 -5.162,4.031 -8.08,2.486 -0.672,-0.356 -1.222,-0.844 -1.692,-1.385 -18.929,26.189 -34.563,57.22 -21.73,85.53 5.756,12.702 16.494,22.329 26.94,31.561 34.916,30.88 69.832,61.759 104.748,92.638 -0.402,0.99 -0.932,1.816 -1.517,2.566 1.631,1.365 2.538,3.502 2.082,5.732 -0.663,3.234 -3.822,5.318 -7.056,4.655 -48.87,-10.017 -95.193,-31.689 -134.424,-62.447 -43.824,41.948 -83.005,88.738 -116.436,139.359 -5.125,7.757 -10.268,16.054 -10.845,25.33 -0.913,14.704 9.659,27.377 19.898,37.959 36.341,37.574 76.898,71.06 120.667,99.634 -52.081,-3.371 -102.631,-26.592 -139.118,-63.907 -4.714,-4.818 -9.937,-10.217 -16.67,-10.514 -8.901,-0.39 -15.308,8.127 -19.946,15.732 -27.62,45.291 -52.721,92.116 -75.145,140.19 -3.953,8.477 -7.9,17.311 -8.017,26.66 -0.363,29.428 33.464,44.78 54.992,64.838 3.605,3.362 7.189,7.684 6.67,12.585 -0.47,4.427 -3.849,6.941 -8.094,7.812 4.467,4.007 8.935,8.014 13.403,12.02 2.458,2.203 2.664,5.983 0.46,8.441 -2.204,2.458 -5.983,2.664 -8.441,0.46 -8.902,-7.982 -17.804,-15.967 -26.705,-23.948 -3.867,-3.476 -7.799,-6.854 -11.726,-9.264 -3.945,-2.426 -7.741,-3.843 -11.61,-3.933 l -0.011,-10e-4 -0.05,-10e-4 h -0.324 c -2.899,0 -5.861,0.781 -8.747,2.223 -2.879,1.436 -5.644,3.532 -8,5.967 -4.914,5.04 -8.638,11.787 -12.416,18.978 v 0 c -1.512,2.865 -5.015,3.962 -7.905,2.548 -6.227,12.536 -12.455,25.073 -18.68,37.605 -2.261,4.551 -4.578,9.35 -4.368,14.426 0.716,17.374 28.241,23.294 30.102,40.585 -11.379,5.286 -25.625,3.747 -35.613,-3.844 -21.651,51.483 -39.566,104.541 -53.561,158.611 -0.672,2.597 -1.314,5.29 -1.807,8.003 2.208,0.789 3.839,2.838 3.963,5.325 0.252,5.376 3.039,10.648 7.383,14.585 4.325,3.941 10.056,6.341 15.466,6.319 1.294,0 2.576,-0.131 3.843,-0.4 3.228,-0.689 6.404,1.369 7.093,4.597 0.11,0.514 0.04,1.011 0.017,1.512 18.573,-2.347 36.371,-8.114 53.266,-16.113 12.283,-5.812 23.254,-14.104 34.687,-21.373 36.56,-23.24 72.28,-47.805 107.072,-73.618 19.53,-14.49 38.765,-29.374 57.691,-44.638 -0.364,-0.385 -0.756,-0.741 -1.122,-1.125 -1.152,-0.081 -2.296,-0.385 -3.273,-1.152 -23.282,-18.291 -46.563,-36.585 -69.847,-54.88 v 10e-4 c -2.596,-2.04 -3.047,-5.798 -1.008,-8.393 1.991,-2.535 5.604,-2.985 8.191,-1.11 10.719,-6.136 26.13,-3.186 37.484,3.307 13.566,7.762 25.133,19.479 40.134,23.854 27.533,8.034 54.97,-10.943 77.401,-28.814 27.263,-21.719 55.526,-44.814 70.024,-76.302 -0.934,-0.19 -1.843,-0.526 -2.628,-1.176 -29.521,-24.463 -59.038,-48.93 -88.558,-73.394 -9.446,-7.837 -19.451,-16.395 -27.69,-26.37 -8.219,-9.956 -14.742,-21.49 -16.576,-35.029 v 10e-4 c -0.443,-3.272 1.85,-6.283 5.122,-6.726 3.271,-0.443 6.282,1.851 6.725,5.123 0.214,1.58 0.534,3.127 0.908,4.658 33.341,23.317 66.682,46.632 100.023,69.951 13.988,9.779 28.889,19.903 45.91,21.17 21.844,1.627 41.8,-11.611 58.996,-25.179 39.723,-31.354 75.424,-67.778 106.046,-108.067 -0.955,-0.214 -1.881,-0.579 -2.665,-1.274 -34.331,-30.445 -70.126,-59.241 -107.221,-86.255 v 0 c -2.669,-1.944 -3.257,-5.682 -1.314,-8.351 1.944,-2.67 5.682,-3.258 8.352,-1.314 1.015,0.739 2.004,1.512 3.016,2.254 4.624,-4.365 12.092,-5.898 18.541,-4.514 8.402,1.807 15.479,7.25 22.422,12.316 20.251,14.782 41.944,27.591 64.667,38.188 8.641,4.029 17.912,7.825 27.398,6.86 8.248,-0.833 15.686,-5.179 22.65,-9.676 48.346,-31.22 88.38,-75.186 114.945,-126.237 -41.062,-32.887 -91.642,-50.948 -139.22,-73.393 -43.134,-20.348 -86.15,-46.553 -112.298,-85.83 -3.583,-2.186 -7.217,-4.29 -10.774,-6.518 v 0 c -2.798,-1.753 -3.644,-5.443 -1.891,-8.239 1.753,-2.798 5.442,-3.644 8.239,-1.892 73.528,46.082 152.864,82.895 235.524,109.301 9.123,2.926 19.372,5.292 28.384,5.278 2.805,10e-4 5.455,-0.254 7.943,-0.727 8.805,-4.825 15.795,-12.29 18.304,-21.974 6.706,-25.882 -19.601,-47.728 -43.45,-59.801 z"
        id="path3" /></svg>
