<?xml version="1.0" encoding="UTF-8" standalone="no"?>
<!-- Uploaded to: SVG Repo, www.svgrepo.com, Generator: SVG Repo Mixer Tools -->

<svg
   width="800px"
   height="800px"
   viewBox="0 0 1024 1024"
   class="icon"
   version="1.1"
   id="svg11"
   sodipodi:docname="flower.svg"
   inkscape:version="1.4.2 (f4327f4, 2025-05-13)"
   xmlns:inkscape="http://www.inkscape.org/namespaces/inkscape"
   xmlns:sodipodi="http://sodipodi.sourceforge.net/DTD/sodipodi-0.dtd"
   xmlns="http://www.w3.org/2000/svg"
   xmlns:svg="http://www.w3.org/2000/svg">
  <defs
     id="defs11" />
  <sodipodi:namedview
     id="namedview11"
     pagecolor="#ffffff"
     bordercolor="#000000"
     borderopacity="0.25"
     inkscape:showpageshadow="2"
     inkscape:pageopacity="0.0"
     inkscape:pagecheckerboard="0"
     inkscape:deskcolor="#d1d1d1"
     inkscape:zoom="0.68324193"
     inkscape:cx="401.02925"
     inkscape:cy="482.25963"
     inkscape:window-width="1920"
     inkscape:window-height="991"
     inkscape:window-x="-9"
     inkscape:window-y="-9"
     inkscape:window-maximized="1"
     inkscape:current-layer="svg11" />
  <path
     id="path1"
     d="M 65.1 585.3 C 65.1 585.3 80.9 717 126.6 762.7 C 159.08739 795.18739 191.06904 800.94185 218.3425 790.0575 L 269.8575 738.5425 C 280.74185 711.26904 274.98739 679.28739 242.5 646.8 C 196.8 601.1 65.1 585.3 65.1 585.3 z "
     style="fill:#44aa00" />
  <path
     id="path2"
     style="fill:#e6c13d;fill-opacity:1"
     d="M 375.515 632.885 L 269.8575 738.5425 L 218.3425 790.0575 L 15 993.4 C 11 997.5 11 1004.1 15 1008.1 C 17 1010.1 19.6 1011.1 22.3 1011.1 C 25 1011.1 27.6 1010.1 29.7 1008.1 L 390.225 647.575 C 387.67844 645.32609 385.17001 642.96339 382.7 640.5 C 380.19564 638.00236 377.79701 635.46301 375.515 632.885 z " />
  <path
     id="path3"
     d="M 824.3725 94.6925 C 804.75917 95.082661 784.30625 103.99375 763.7 124.6 C 730.13653 158.16347 705.25767 213.7154 707.19 256.335 A 145.5 145.5 0 0 1 766.765 315.91 C 809.3846 317.84233 864.93653 292.96347 898.5 259.4 C 945.6 212.3 931.6 166 894.4 128.7 C 873.41875 107.775 849.58964 94.190864 824.3725 94.6925 z "
     style="fill:#60c13d;fill-opacity:1" />
  <path
     id="path4"
     d="M 638.5 22.8 C 585.9 22.8 543.2 45.7 543.2 112.3 C 543.2 159.74181 564.86659 216.5707 596.345 245.34 A 145.5 145.5 0 0 1 680.655 245.34 C 712.13341 216.5707 733.8 159.74181 733.8 112.3 C 733.8 45.7 691.1 22.8 638.5 22.8 z "
     style="fill:#60c13d;fill-opacity:1" />
  <path
     id="path5"
     d="M 452.695 94.76 C 427.46094 94.241445 403.625 107.81875 382.7 128.8 C 345.5 166.1 331.5 212.4 378.6 259.5 C 412.12221 293.02221 467.57859 317.88164 510.1775 316.0175 A 145.5 145.5 0 0 1 569.9175 256.2775 C 571.78164 213.67859 546.92221 158.22221 513.4 124.7 C 492.79375 104.09375 472.32149 95.16332 452.695 94.76 z "
     style="fill:#60c13d;fill-opacity:1" />
  <path
     id="path6"
     d="M 366.2 289.3 C 299.6 289.3 276.7 332 276.7 384.6 C 276.7 437.2 299.6 479.9 366.2 479.9 C 413.64181 479.9 470.4707 458.23341 499.24 426.755 A 145.5 145.5 0 0 1 493 384.6 A 145.5 145.5 0 0 1 499.24 342.445 C 470.4707 310.96659 413.64181 289.3 366.2 289.3 z "
     style="fill:#60c13d;fill-opacity:1" />
  <path
     id="path7"
     d="M 510.2325 453.285 C 467.62636 451.39713 412.13658 476.26342 378.6 509.8 C 331.5 556.9 345.4 603.3 382.7 640.5 C 420 677.7 466.3 691.7 513.4 644.6 C 546.94908 611.05092 571.82103 555.5324 569.9125 512.92 A 145.5 145.5 0 0 1 510.2325 453.285 z "
     style="fill:#60c13d;fill-opacity:1" />
  <path
     id="path8"
     d="M 596.345 523.86 C 564.86659 552.6293 543.2 609.45819 543.2 656.9 C 543.2 723.5 585.9 746.4 638.5 746.4 C 691.1 746.4 733.8 723.5 733.8 656.9 C 733.8 609.45819 712.13341 552.6293 680.655 523.86 A 145.5 145.5 0 0 1 596.345 523.86 z "
     style="fill:#60c13d;fill-opacity:1" />
  <path
     id="path9"
     d="M 766.765 453.29 A 145.5 145.5 0 0 1 707.19 512.865 C 705.25767 555.4846 730.13653 611.03653 763.7 644.6 C 810.8 691.6 857.1 677.6 894.4 640.5 C 931.6 603.2 945.6 556.9 898.5 509.8 C 864.93653 476.23653 809.3846 451.35767 766.765 453.29 z "
     style="fill:#60c13d;fill-opacity:1" />
  <path
     id="path10"
     d="M 910.8 289.3 C 863.35819 289.3 806.5293 310.96659 777.76 342.445 A 145.5 145.5 0 0 1 784 384.6 A 145.5 145.5 0 0 1 777.76 426.755 C 806.5293 458.23341 863.35819 479.9 910.8 479.9 C 977.4 479.9 1000.3 437.2 1000.3 384.6 C 1000.3 332 977.4 289.3 910.8 289.3 z "
     style="fill:#60c13d;fill-opacity:1" />
  <path
     d="M638.5 384.6m-145.5 0a145.5 145.5 0 1 0 291 0 145.5 145.5 0 1 0-291 0Z"
     fill="#FCD170"
     id="path11" />
</svg>
