<?xml version="1.0" encoding="UTF-8" standalone="no"?>
<!-- Generator: Adobe Illustrator 27.5.0, SVG Export Plug-In . SVG Version: 6.00 Build 0)  -->

<svg
   version="1.1"
   id="Capa_1"
   x="0px"
   y="0px"
   viewBox="0 0 2122 2122"
   style="enable-background:new 0 0 2122 2122;"
   xml:space="preserve"
   sodipodi:docname="orange.svg"
   inkscape:version="1.4.2 (f4327f4, 2025-05-13)"
   xmlns:inkscape="http://www.inkscape.org/namespaces/inkscape"
   xmlns:sodipodi="http://sodipodi.sourceforge.net/DTD/sodipodi-0.dtd"
   xmlns="http://www.w3.org/2000/svg"
   xmlns:svg="http://www.w3.org/2000/svg"><defs
   id="defs14" /><sodipodi:namedview
   id="namedview14"
   pagecolor="#ffffff"
   bordercolor="#000000"
   borderopacity="0.25"
   inkscape:showpageshadow="2"
   inkscape:pageopacity="0.0"
   inkscape:pagecheckerboard="0"
   inkscape:deskcolor="#d1d1d1"
   inkscape:zoom="0.51516827"
   inkscape:cx="836.61985"
   inkscape:cy="1289.8698"
   inkscape:window-width="1920"
   inkscape:window-height="991"
   inkscape:window-x="-9"
   inkscape:window-y="-9"
   inkscape:window-maximized="1"
   inkscape:current-layer="Capa_1" />
<path
   style="enable-background:new 0 0 2122 2122;fill:#EC6F17"
   d="m 1869.5254,999.23047 c 60.871,141.12103 -58.7943,347.48663 -280.6563,503.05663 -38.657,27.106 -80.3888,52.6829 -124.8379,76.0899 -307.429,161.892 -627.11026,159.3407 -714.07026,-5.6973 h -0.002 c 5.22674,11.9362 10.94837,23.7494 17.08399,35.4277 132.322,251.293 431.29793,361.9894 709.33593,280.3184 41.915,-12.302 83.3546,-28.9808 123.6856,-50.2188 307.828,-162.092 433.894,-527.9037 281.621,-817.0527 -3.8997,-7.4485 -7.9604,-14.7533 -12.1601,-21.92383 z"
   id="path23" /><path
   style="enable-background:new 0 0 2122 2122;fill:#EC6F17"
   d="m 794.69141,286.29883 c -28.8586,-0.16337 -57.85593,1.56828 -86.81055,5.33203 -15.471,2.012 -30.69777,4.64722 -45.63477,7.82422 -37.328,8.009 -72.94528,19.64673 -106.73828,34.30273 v 0.002 c 8.136,10.731 16.27288,21.66979 25.42188,31.21679 10.667,11.128 22.69206,17.09988 24.03906,34.17188 1.481,18.801 -6.51452,38.10951 -20.85352,50.35351 -14.341,12.249 -34.66009,17.12471 -52.99609,12.72071 -11.467,-2.758 -22.36309,-9.26277 -28.62109,-19.25977 -8.524,-13.608 -7.29182,-30.90342 -10.63282,-46.60742 -1.844,-8.668 -5.13435,-16.83858 -9.06835,-24.76758 h -0.002 c -18.81586,11.52994 -36.91726,24.02711 -54.24414,37.41602 -24.486,18.92325 -47.4391,39.58261 -68.75586,61.63867 21.31677,-22.05616 44.26986,-42.71347 68.75586,-61.63672 10.735,49.769 9.04564,103.42394 2.43164,141.83594 -7.891,45.963 -27.42301,89.62306 -40.91601,134.53906 -42.256,140.448 -22.02586,297.8067 69.11914,418.59574 75.293,99.795 200.88098,170.4022 334.20898,184.1132 71.035,-111.357 196.03994,-223.3666 355.83597,-307.51363 120.7191,-63.57133 242.6403,-100.41444 352.3047,-113.39258 -9.2341,1.09212 -17.8158,0.98152 -27.2247,2.43164 -10.258,-122.97 -62.2942,-245.45504 -156.2832,-349.12304 C 1191.9083,381.39606 996.70155,287.44244 794.69141,286.29883 Z"
   id="path1" /><path
   id="path20"
   style="enable-background:new 0 0 2122 2122;fill:#e35410"
   d="M 428.55078 409.00586 C 330.60678 484.69886 257.17984 588.15677 214.96484 697.75977 C 200.17084 736.15177 189.27122 775.75197 182.69922 815.91797 C 136.61122 1097.594 299.57828 1422.6202 631.36328 1489.8652 C 663.84228 1496.4462 696.52197 1500.8298 729.16797 1503.2148 C 730.39097 1514.8068 732.55814 1526.1205 735.70312 1537.1055 C 735.70812 1537.1235 735.7147 1537.1422 735.7207 1537.1602 C 739.2287 1549.4182 743.9465 1561.2657 749.9375 1572.6387 L 749.94727 1572.6562 C 749.95127 1572.6662 749.95594 1572.6717 749.96094 1572.6797 C 836.92094 1737.7177 1156.6022 1740.269 1464.0312 1578.377 C 1508.4805 1554.97 1550.2121 1529.3931 1588.8691 1502.2871 C 1810.7311 1346.7171 1930.3964 1140.3515 1869.5254 999.23047 L 1869.5254 999.22852 C 1867.6524 994.86952 1865.5856 990.56331 1863.3516 986.32031 C 1855.0606 970.57631 1844.6393 956.3092 1832.3223 943.5332 C 1832.3123 943.5232 1832.3059 943.51391 1832.2969 943.50391 C 1715.4959 822.23691 1427.3515 834.11617 1149.2305 980.57617 C 989.43429 1064.7232 864.42953 1176.7328 793.39453 1288.0898 C 660.06653 1274.3788 534.47855 1203.7716 459.18555 1103.9766 C 368.04055 983.18732 347.81041 825.82886 390.06641 685.38086 C 403.55941 640.46486 423.09142 596.8048 430.98242 550.8418 C 437.59642 512.4298 439.28578 458.77486 428.55078 409.00586 z M 1531.6855 880.75195 C 1643.3048 875.08808 1736.3743 900.18481 1790.0488 955.88281 C 1801.3808 967.62481 1810.9639 980.7418 1818.5859 995.2168 C 1820.6379 999.1138 1822.5378 1003.0681 1824.2578 1007.0781 C 1889.9198 1159.3321 1726.7151 1394.3589 1451.2441 1539.4199 C 1168.5211 1688.3019 874.58998 1686.0603 794.70898 1534.4062 L 794.70117 1534.3926 C 789.18817 1523.9226 784.848 1513.0231 781.625 1501.7441 C 738.086 1349.5491 898.78238 1128.7996 1162.0176 990.18359 C 1289.8971 922.84109 1420.0663 886.41583 1531.6855 880.75195 z M 1495.8398 912.75977 C 1495.019 912.79805 1494.0631 913.01908 1493.2305 913.07227 C 1498.227 912.75352 1503.1581 912.5244 1507.6836 912.77148 C 1503.9085 912.56537 1499.9492 912.56811 1495.8398 912.75977 z M 1516.6387 913.77148 C 1517.5266 913.91738 1518.3553 914.12657 1519.2148 914.30273 C 1518.3546 914.1264 1517.5273 913.9175 1516.6387 913.77148 z M 1472.6016 915.54492 C 1472.0904 915.63485 1471.6287 915.65428 1471.1152 915.74805 C 1471.6274 915.65453 1472.0917 915.63462 1472.6016 915.54492 z M 1448.1855 921.06445 C 1443.8518 922.21814 1439.6582 923.84503 1435.2871 925.17773 C 1439.6057 923.86238 1443.9036 922.20499 1448.1855 921.06445 z M 1544.4141 929.89453 C 1544.6359 930.2632 1544.8494 930.63951 1545.0566 931.02148 C 1544.8494 930.63945 1544.636 930.26325 1544.4141 929.89453 z M 1546.168 933.31445 C 1546.3269 933.67794 1546.4957 934.03189 1546.6426 934.40625 C 1546.4957 934.03179 1546.327 933.67804 1546.168 933.31445 z M 1547.8164 937.94141 C 1547.842 938.03677 1547.8677 938.13254 1547.8926 938.22852 C 1547.8677 938.13254 1547.842 938.03677 1547.8164 937.94141 z M 1397.9082 938.1875 C 1392.6312 940.29451 1388.13 942.21657 1383.0996 944.41406 C 1387.9584 942.29504 1392.82 940.22222 1397.9082 938.1875 z M 1549.1016 946.5332 C 1549.1291 947.05664 1549.1468 947.58757 1549.1582 948.125 C 1549.1468 947.58754 1549.1291 947.05667 1549.1016 946.5332 z M 1353.834 958.33008 C 1349.2976 960.69943 1344.5756 962.96108 1340.6777 965.2168 C 1344.4922 963.01114 1349.4091 960.64458 1353.834 958.33008 z M 1332.0742 970.37109 C 1330.401 971.43827 1328.5945 972.53022 1327.1309 973.53906 C 1328.5862 972.53609 1330.4117 971.43172 1332.0742 970.37109 z M 1325.0996 974.97656 C 1322.2702 977.01472 1319.7493 978.9593 1317.9688 980.6582 C 1319.7477 978.96087 1322.2737 977.01255 1325.0996 974.97656 z M 1695.9121 991.9707 C 1693.5073 992.41172 1691.0993 992.95454 1688.6836 993.60547 C 1691.0987 992.95478 1693.508 992.41159 1695.9121 991.9707 z M 1685.7559 994.40625 C 1682.5066 995.38671 1679.2536 996.48037 1676.0039 997.7793 C 1679.2535 996.48042 1682.5067 995.38667 1685.7559 994.40625 z M 1662.7129 1004.0254 C 1656.3045 1007.3083 1649.9406 1010.8782 1643.7168 1014.8359 C 1649.9357 1010.8813 1656.3096 1007.3064 1662.7129 1004.0254 z M 1013.6426 1123.3711 C 1006.792 1130.0657 1000.4715 1137.0334 995.08203 1144.1152 C 1000.4714 1137.0333 1006.7941 1130.0658 1013.6445 1123.3711 L 1013.6426 1123.3711 z M 499.56055 1254.6016 C 511.58955 1254.1586 522.03747 1261.4769 530.98047 1268.6289 C 558.00847 1290.2369 583.48273 1314.5238 616.42773 1328.2148 C 662.36873 1347.3088 713.76539 1342.7607 765.52539 1337.2227 C 744.77561 1379.1616 732.22867 1420.3984 728.89062 1459.3809 C 728.8954 1459.3814 728.89954 1459.3822 728.9043 1459.3828 C 728.8383 1460.1498 728.76213 1460.9186 728.70312 1461.6836 C 728.7618 1460.9166 728.8248 1460.1496 728.89062 1459.3809 C 654.95197 1450.392 585.59508 1422.2725 526.12891 1374.6836 C 500.67191 1354.3096 477.2145 1329.4034 471.5625 1299.4004 C 467.9685 1280.3114 477.76755 1255.4056 499.56055 1254.6016 z M 1227.3398 1272.5254 C 1226.6338 1273.2768 1225.8774 1273.9787 1225.0781 1274.6328 C 1225.8778 1273.9784 1226.6335 1273.2772 1227.3398 1272.5254 z M 1309.6289 1305.6953 C 1314.7937 1305.4443 1320.0893 1305.7143 1325.4102 1306.1973 C 1320.0872 1305.7139 1314.7957 1305.4442 1309.6289 1305.6953 z M 1328.8027 1306.5215 C 1331.3485 1306.8177 1333.9052 1307.3584 1336.4609 1307.791 C 1333.8978 1307.3569 1331.3558 1306.8184 1328.8027 1306.5215 z M 1298.4199 1307.0312 C 1297.0327 1307.2775 1295.6495 1307.5253 1294.2871 1307.8438 C 1295.6488 1307.5255 1297.0335 1307.2774 1298.4199 1307.0312 z M 1292.0918 1308.3691 C 1289.6773 1309.0113 1287.2939 1309.7364 1284.9746 1310.6289 C 1287.293 1309.7368 1289.6782 1309.0111 1292.0918 1308.3691 z M 1284.8926 1310.6602 C 1282.5902 1311.5497 1280.356 1312.6116 1278.1621 1313.7656 C 1280.3564 1312.6114 1282.5897 1311.5498 1284.8926 1310.6602 z M 1350.7305 1310.752 C 1353.09 1311.3528 1355.4365 1311.9789 1357.7734 1312.6602 C 1355.4192 1311.9735 1353.1077 1311.357 1350.7305 1310.752 z M 1276.2324 1314.8574 C 1274.6188 1315.7813 1273.0416 1316.7863 1271.498 1317.8691 C 1273.0413 1316.7865 1274.6191 1315.7811 1276.2324 1314.8574 z M 1367.0684 1315.6738 C 1377.069 1319.0429 1386.9062 1322.7797 1395.6855 1326.7383 C 1386.8785 1322.7672 1377.1032 1319.05 1367.0684 1315.6738 z M 1269.6367 1319.1953 C 1267.5883 1320.7504 1265.5863 1322.4063 1263.6836 1324.2734 C 1265.5863 1322.4063 1267.5883 1320.7504 1269.6367 1319.1953 z M 1484.7168 1397.5215 C 1487.6284 1403.2106 1489.7868 1409.1671 1490.9824 1415.3789 C 1489.7867 1409.1671 1487.6284 1403.2106 1484.7168 1397.5215 z M 1491.6953 1420.0859 C 1492.2217 1424.8399 1492.1781 1429.7355 1491.4766 1434.7676 C 1492.1781 1429.7355 1492.2217 1424.8399 1491.6953 1420.0859 z M 1411.3242 1517.3789 C 1378.6322 1539.3039 1343.0441 1555.6292 1306.8281 1568.7402 C 1343.0441 1555.6292 1378.6322 1539.3039 1411.3242 1517.3789 z M 1215.7695 1564.1074 C 1217.109 1565.883 1218.5744 1567.5344 1220.1719 1569.0547 C 1218.5748 1567.5347 1217.1087 1565.8826 1215.7695 1564.1074 z " /><path
   style="enable-background:new 0 0 2122 2122;fill:#3a1312"
   d="m 502.498,442.963 c 6.258,9.997 17.155,16.502 28.622,19.26 18.336,4.404 38.655,-0.472 52.996,-12.721 14.339,-12.244 22.334,-31.552 20.853,-50.353 -1.347,-17.072 -13.372,-23.045 -24.039,-34.173 -9.149,-9.547 -17.287,-20.486 -25.423,-31.217 -3.215,-4.241 -6.434,-8.452 -9.709,-12.53 -6.777,-8.428 -15.72572,-31.62003 -25.78472,-35.60003 -12.17,-4.814 -13.93797,-30.44106 -26.32097,-26.20306 -10.616,3.635 -32.88631,53.28709 -33.90731,64.46309 -0.57,6.241 2.614,12.156 5.8,17.559 5.856,9.931 12.092,19.825 17.211,30.14 3.934,7.929 7.226,16.1 9.07,24.768 3.341,15.704 2.108,32.999 10.632,46.607 z"
   id="path3"
   sodipodi:nodetypes="ccccccccccsccc" /><path
   style="enable-background:new 0 0 2122 2122;fill:#EC6F17"
   d="M765.526,1337.223c-51.76,5.538-103.158,10.085-149.099-9.009   c-32.945-13.691-58.419-37.978-85.447-59.586c-8.943-7.152-19.391-14.47-31.42-14.027c-21.793,0.804-31.591,25.71-27.997,44.799   c5.652,30.003,29.108,54.909,54.565,75.283c59.47,47.592,128.833,75.712,202.777,84.699c-0.066,0.767-0.142,1.537-0.201,2.302   C731.737,1422.024,744.367,1379.989,765.526,1337.223z"
   id="path4" /><path
   id="path5"
   style="enable-background:new 0 0 2122 2122;fill:#FEF7C2"
   d="M 1531.6855 880.75195 C 1420.0663 886.41583 1289.8971 922.84109 1162.0176 990.18359 C 898.7825 1128.7996 738.086 1349.5491 781.625 1501.7441 C 784.848 1513.0231 789.18817 1523.9226 794.70117 1534.3926 L 794.70898 1534.4062 C 874.58998 1686.0602 1168.5211 1688.3019 1451.2441 1539.4199 C 1726.7151 1394.3589 1889.9198 1159.3321 1824.2578 1007.0781 C 1822.5378 1003.0681 1820.6379 999.1138 1818.5859 995.2168 C 1810.9639 980.7418 1801.3808 967.62481 1790.0488 955.88281 C 1736.3743 900.18481 1643.3048 875.08808 1531.6855 880.75195 z M 1495.8398 912.75977 C 1499.9492 912.56811 1503.9085 912.56537 1507.6836 912.77148 C 1535.139 914.27054 1552.901 926.82422 1548.5488 958.19922 C 1546.8878 970.16422 1541.1676 981.14098 1535.3066 991.70898 C 1531.7866 998.05698 1528.1773 1004.3612 1524.4863 1010.6172 C 1486.8243 1074.4472 1440.4838 1133.145 1387.1738 1184.623 C 1365.7708 1205.295 1328.9064 1243.2699 1296.0684 1240.4199 C 1249.9274 1236.4199 1256.185 1158.6457 1259.332 1127.8887 C 1265.004 1072.4537 1275.8987 1020.7942 1317.9688 980.6582 C 1338.5873 960.98776 1434.1992 915.63466 1495.8398 912.75977 z M 1708.5566 990.62109 C 1722.8057 990.50688 1736.5782 995.06183 1749.1367 1006.5977 C 1773.2237 1028.7267 1781.9426 1066.7183 1780.8516 1098.2363 C 1777.9086 1183.2293 1733.9739 1237.0194 1653.5059 1262.9824 C 1586.0239 1284.7554 1510.9142 1290.0998 1440.4102 1290.5918 C 1429.2652 1290.6698 1417.7636 1290.4758 1407.5566 1286.0078 C 1340.5926 1256.6778 1436.0415 1177.0877 1459.8125 1155.9277 C 1500.3115 1119.8837 1542.9472 1086.2359 1587.4102 1055.2109 C 1618.7789 1033.3192 1665.8095 990.96375 1708.5566 990.62109 z M 1136.627 1056.3945 C 1159.473 1056.6615 1177.5936 1071.3754 1189.5176 1089.4414 C 1192.9446 1094.6354 1196.619 1100.4295 1200.373 1106.6855 C 1228.21 1153.1065 1260.4858 1225.3352 1229.2988 1270.1152 C 1224.5218 1276.9752 1216.0072 1280.3011 1207.7832 1282.3281 C 1143.3282 1298.2061 1056.3365 1253.5932 1002.1895 1222.8652 C 994.72245 1218.6312 987.06606 1213.9331 982.66406 1206.6641 C 951.92606 1155.9211 1058.4484 1082.0906 1095.3594 1066.2656 C 1108.4324 1060.6576 1122.359 1056.2235 1136.627 1056.3945 z M 1309.6289 1305.6953 C 1338.3677 1304.2988 1370.4343 1315.3527 1395.6855 1326.7383 C 1431.6075 1342.9383 1498.9596 1381.0916 1491.4766 1434.7676 C 1486.8946 1467.5716 1435.1342 1501.4079 1411.3242 1517.3789 C 1378.6322 1539.3039 1343.0441 1555.6292 1306.8281 1568.7402 C 1289.9391 1574.8552 1272.6064 1580.3846 1254.8984 1580.6816 C 1156.0234 1582.3476 1227.3723 1397.7627 1246.7383 1350.3867 C 1251.2183 1339.4247 1256.9746 1330.8504 1263.6836 1324.2734 C 1276.341 1311.8531 1292.3856 1306.5332 1309.6289 1305.6953 z M 1166.709 1313.8164 C 1213.544 1311.8284 1187.2166 1359.7214 1172.1816 1381.1484 C 1158.9786 1399.9594 1142.6704 1417.9194 1131.3184 1432.3164 C 1104.7624 1465.9924 1075.4575 1497.5052 1043.7695 1526.4062 C 1015.0845 1552.5697 979.13772 1578.0986 940.88672 1571.4336 C 880.39672 1560.8996 852.21216 1484.4231 867.53516 1430.0801 C 885.60816 1366.0021 954.1373 1342.9907 1013.5742 1331.8047 C 1063.5132 1322.4117 1116.132 1315.9654 1166.709 1313.8164 z " /><path
   style="enable-background:new 0 0 2122 2122;fill:#F8AE36"
   d="M1317.968,980.658c-42.07,40.136-52.964,91.795-58.636,147.23   c-3.147,30.757-9.405,108.531,36.736,112.531c32.838,2.85,69.703-35.123,91.106-55.795   c53.31-51.478,99.651-110.177,137.313-174.007c3.691-6.256,7.299-12.56,10.819-18.908c5.861-10.568,11.581-21.545,13.242-33.51   C1562.475,857.799,1349.958,950.139,1317.968,980.658z"
   id="path6" /><path
   style="enable-background:new 0 0 2122 2122;fill:#F8AE36"
   d="M1749.137,1006.597c-50.234-46.143-119.902,19.425-161.727,48.614   c-44.463,31.025-87.099,64.672-127.598,100.716c-23.771,21.16-119.22,100.75-52.256,130.08c10.207,4.468,21.71,4.663,32.855,4.585   c70.504-0.492,145.612-5.837,213.094-27.61c80.468-25.963,124.404-79.752,127.347-164.745   C1781.943,1066.719,1773.224,1028.726,1749.137,1006.597z"
   id="path7" /><path
   style="enable-background:new 0 0 2122 2122;fill:#F8AE36"
   d="M1200.373,1106.685c-3.754-6.256-7.428-12.049-10.855-17.243   c-11.924-18.066-30.046-32.78-52.892-33.047c-14.268-0.171-28.194,4.263-41.267,9.871   c-36.911,15.825-143.432,89.656-112.694,140.399c4.402,7.269,12.058,11.966,19.525,16.2   c54.147,30.728,141.138,75.342,205.593,59.464c8.224-2.027,16.738-5.354,21.515-12.214   C1260.485,1225.335,1228.21,1153.106,1200.373,1106.685z"
   id="path8" /><path
   style="enable-background:new 0 0 2122 2122;fill:#F8AE36"
   d="M1166.709,1313.817c-50.577,2.149-103.196,8.595-153.135,17.988   c-59.437,11.186-127.966,34.197-146.039,98.275c-15.323,54.343,12.862,130.82,73.352,141.354   c38.251,6.665,74.197-18.865,102.882-45.028c31.688-28.901,60.994-60.414,87.55-94.09c11.352-14.397,27.659-32.356,40.862-51.167   C1187.216,1359.722,1213.544,1311.829,1166.709,1313.817z"
   id="path9" /><path
   style="enable-background:new 0 0 2122 2122;fill:#F8AE36"
   d="M1395.685,1326.738c-40.402-18.217-98.249-35.586-132.002-2.465   c-6.709,6.577-12.465,15.152-16.945,26.114c-19.366,47.376-90.714,231.961,8.161,230.295c17.708-0.297,35.04-5.827,51.929-11.942   c36.216-13.111,71.805-29.437,104.497-51.362c23.81-15.971,75.569-49.807,80.151-82.611   C1498.959,1381.091,1431.607,1342.938,1395.685,1326.738z"
   id="path10" />
</svg>
