<?xml version="1.0" encoding="UTF-8" standalone="no"?>
<!-- Generator: Adobe Illustrator 27.5.0, SVG Export Plug-In . SVG Version: 6.00 Build 0)  -->

<svg
   version="1.1"
   id="Capa_1"
   x="0px"
   y="0px"
   viewBox="0 0 2122 2122"
   style="enable-background:new 0 0 2122 2122;"
   xml:space="preserve"
   sodipodi:docname="136482110_73c1e0a4-66bb-443c-a632-108fa967fec1.svg"
   inkscape:version="1.4.2 (f4327f4, 2025-05-13)"
   xmlns:inkscape="http://www.inkscape.org/namespaces/inkscape"
   xmlns:sodipodi="http://sodipodi.sourceforge.net/DTD/sodipodi-0.dtd"
   xmlns="http://www.w3.org/2000/svg"
   xmlns:svg="http://www.w3.org/2000/svg"><defs
   id="defs17"><linearGradient
     id="swatch18"
     inkscape:swatch="solid"><stop
       style="stop-color:#44aa00;stop-opacity:1;"
       offset="0"
       id="stop18" /></linearGradient></defs><sodipodi:namedview
   id="namedview17"
   pagecolor="#ffffff"
   bordercolor="#000000"
   borderopacity="0.25"
   inkscape:showpageshadow="2"
   inkscape:pageopacity="0.0"
   inkscape:pagecheckerboard="0"
   inkscape:deskcolor="#d1d1d1"
   inkscape:zoom="0.25758414"
   inkscape:cx="1729.532"
   inkscape:cy="1640.2407"
   inkscape:window-width="1920"
   inkscape:window-height="991"
   inkscape:window-x="-9"
   inkscape:window-y="-9"
   inkscape:window-maximized="1"
   inkscape:current-layer="g14" />
<path
   style="fill:#F4A4A2;"
   d="M1746.364,164.905L1628.2,328.908c-0.098,0.137-0.137,0.302-0.107,0.465  c0.024,0.163,0.117,0.309,0.254,0.404l140.594,100.248c0.106,0.081,0.233,0.117,0.36,0.117c0.195,0,0.385-0.09,0.507-0.261  l99.147-139.042c10.08-14.141,6.777-33.846-7.357-43.924L1746.364,164.905z M1742.09,393.763  c-8.282-6.241-11.147-18.351-6.967-29.45c2.913-7.739,8.034-14.541,12.989-21.116c1.325-1.761,2.65-3.518,3.937-5.293  c14.84-20.512,24.94-44.548,29.203-69.51l0.395-2.368c1.014-6.163,2.061-12.538,5.442-17.715c3.454-5.301,9.271-8.75,16.38-9.713  c1.306-0.177,2.621-0.265,3.941-0.265c7.123,0,14.251,2.531,19.294,6.984c10.304,9.106,14.704,25.557,11.216,41.905  c-3.25,15.208-11.884,28.463-20.443,40.733c-8.94,12.813-18.437,25.454-28.225,37.568c-1.91,2.371-3.829,4.979-5.855,7.742  c-5.17,7.033-10.51,14.307-16.707,18.911C1758.148,398.53,1749.18,399.108,1742.09,393.763z"
   id="path1" />
<path
   style="fill:#F49619;"
   d="M1611.718,611.685l-122.241-87.162c-0.273-0.21-0.668-0.139-0.867,0.144L576.591,1803.69  c-0.068,0.095-0.107,0.21-0.117,0.324l-0.293,4.083c-0.015,0.251,0.122,0.492,0.351,0.604c0.165,0.086,0.356,0.088,0.521,0.018  l84.492-35.674l-10.192,88.623c-0.024,0.21,0.058,0.417,0.224,0.551c0.112,0.095,0.253,0.145,0.395,0.145  c0.063,0,0.126-0.01,0.185-0.03l88.131-27.7c0.132-0.038,0.244-0.121,0.322-0.231l871.254-1221.847  c0.097-0.137,0.136-0.302,0.107-0.465C1611.947,611.926,1611.854,611.78,1611.718,611.685z"
   id="path2" />
<path
   style="fill:#F7AF64;"
   d="M739.919,1833.444l-87.216,27.413l10.202-88.73c0.024-0.22-0.068-0.437-0.243-0.57  c-0.185-0.137-0.419-0.156-0.619-0.075l-84.545,35.695l0.224-3.123c0-0.271-0.175-0.512-0.434-0.595  c-0.258-0.078-0.541,0.015-0.697,0.231l-92.351,129.515c-0.195,0.273-0.141,0.651,0.127,0.855  c15.157,11.744,28.501,26.792,39.659,44.724c0.117,0.189,0.321,0.294,0.531,0.294c0.093,0,0.185-0.019,0.273-0.063  c80.477-39.455,172.482-84.263,172.74-84.388c0.093-0.044,0.181-0.114,0.239-0.199l42.801-60.027c0.156-0.219,0.156-0.511,0-0.729  C740.45,1833.452,740.152,1833.359,739.919,1833.444z"
   id="path3" />
<g
   id="g6">
	<path
   style="fill:#39245E;"
   d="M485.127,1933.076c-0.132-0.104-0.282-0.153-0.473-0.124c-0.165,0.024-0.317,0.117-0.414,0.253   l-67.659,94.888c-0.073,0.1-0.112,0.219-0.117,0.343c-0.102,3.133,0.166,3.513,0.585,3.734c0.083,0.044,0.195,0.063,0.307,0.063   c0.181,0,0.37-0.046,0.487-0.131c1.725-1.266,36.721-18.629,106.986-53.087c0.161-0.078,0.278-0.22,0.326-0.388   c0.049-0.171,0.024-0.353-0.068-0.502C513.848,1960.068,500.406,1944.911,485.127,1933.076z"
   id="path4" />
	<path
   style="fill:#39245E;"
   d="M1780.955,445.797c-1.072-6.397-4.546-11.976-9.783-15.708l-142.104-101.325   c-0.277-0.207-0.668-0.142-0.867,0.144l-37.871,53.101c-0.098,0.137-0.137,0.302-0.107,0.465c0.024,0.163,0.117,0.31,0.254,0.404   l161.296,115.014c0.106,0.08,0.233,0.117,0.36,0.117c0.195,0,0.385-0.09,0.507-0.261l24.185-33.914   C1780.561,458.599,1782.026,452.192,1780.955,445.797z"
   id="path5" />
	<path
   style="fill:#39245E;"
   d="M1530.924,466.404c-0.277-0.208-0.672-0.136-0.867,0.144l-41.447,58.12   c-0.098,0.136-0.136,0.302-0.107,0.465c0.024,0.163,0.117,0.31,0.254,0.405l142.104,101.327c4.117,2.938,8.96,4.473,13.948,4.473   c1.36,0,2.724-0.114,4.088-0.343c6.397-1.069,11.976-4.546,15.703-9.781l27.762-38.931c0.097-0.136,0.136-0.302,0.106-0.465   c-0.023-0.163-0.116-0.31-0.253-0.404L1530.924,466.404z"
   id="path6" />
</g>
<path
   style="fill:#CD0B5B;"
   d="M1752.492,496.879l-161.296-115.014c-0.127-0.092-0.287-0.124-0.463-0.107  c-0.165,0.027-0.312,0.12-0.404,0.253l-60.272,84.536c-0.2,0.28-0.137,0.67,0.146,0.87l161.291,115.01  c0.107,0.081,0.234,0.117,0.361,0.117c0.194,0,0.384-0.09,0.507-0.261l60.277-84.536  C1752.838,497.466,1752.774,497.079,1752.492,496.879z"
   id="path7" />
<path
   style="fill:#EB5E0C;"
   d="M1473.029,721.56l-10.671-7.61c-0.137-0.1-0.307-0.139-0.463-0.109  c-0.165,0.029-0.312,0.119-0.404,0.253L738.097,1728.587c-0.097,0.137-0.137,0.303-0.107,0.466c0.024,0.163,0.117,0.309,0.253,0.404  l10.675,7.61c0.107,0.08,0.234,0.116,0.361,0.116c0.195,0,0.384-0.09,0.507-0.261l723.39-1014.493  C1473.375,722.15,1473.312,721.76,1473.029,721.56z"
   id="path8" />
<path
   style="fill:#F07E57;"
   d="M1746.135,164.587l-111.977-79.846c-1.105-0.787-2.318-1.516-3.819-2.29  c-0.292-0.153-0.595-0.307-0.892-0.449c-1.398-0.667-2.689-1.186-3.951-1.588c-0.107-0.034-0.219-0.063-0.331-0.093l-0.234-0.061  c-1.184-0.353-2.431-0.641-3.703-0.858l-0.316-0.053c-0.189-0.034-0.38-0.068-0.569-0.097c-1.374-0.19-2.754-0.295-4.171-0.314  c-0.024-0.003-0.2-0.015-0.225-0.015c-0.165,0-0.326,0.013-0.491,0.025c-0.112,0.01-0.22,0.019-0.332,0.022  c-0.755,0.019-1.51,0.061-2.266,0.131c-0.414,0.044-0.822,0.092-1.232,0.149c-0.75,0.102-1.496,0.236-2.236,0.392l-0.277,0.058  c-0.288,0.059-0.57,0.117-0.857,0.188c-0.805,0.2-1.652,0.45-2.587,0.77l-0.273,0.086c-0.136,0.041-0.272,0.082-0.404,0.131  c-1.058,0.388-2.114,0.843-3.147,1.355c-0.141,0.071-0.277,0.146-0.414,0.224l-0.312,0.17c-0.804,0.427-1.545,0.853-2.271,1.313  c-0.287,0.188-0.575,0.388-0.97,0.665c-0.639,0.441-1.262,0.908-1.865,1.401c-0.322,0.258-0.634,0.521-0.96,0.801  c-0.609,0.538-1.199,1.113-1.764,1.703l-0.239,0.239c-0.18,0.18-0.36,0.36-0.536,0.55c-0.872,0.965-1.612,1.881-2.271,2.804  l-99.146,139.045c-0.098,0.136-0.137,0.302-0.107,0.465c0.024,0.163,0.117,0.309,0.253,0.405l137.106,97.763  c0.106,0.078,0.233,0.117,0.36,0.117c0.034,0,0.067-0.003,0.103-0.01c0.165-0.027,0.312-0.117,0.403-0.251l117.067-164.177  c0.098-0.137,0.137-0.303,0.107-0.466C1746.363,164.828,1746.271,164.682,1746.135,164.587z"
   id="path9" />
<path
   style="fill:#EF7712;"
   d="M1489.477,524.523l-118.752-84.678c-0.278-0.207-0.673-0.141-0.867,0.144l-869.46,1219.34  c-0.074,0.103-0.112,0.222-0.118,0.346l-2.475,92.561c-0.005,0.168,0.063,0.331,0.18,0.453c0.175,0.178,0.458,0.236,0.697,0.137  l83.825-36.188l-6.032,87.371c-0.02,0.28,0.151,0.536,0.414,0.631c0.068,0.024,0.141,0.036,0.209,0.036  c0.194,0,0.39-0.095,0.506-0.261l912.019-1279.023c0.098-0.137,0.137-0.302,0.107-0.465  C1489.705,524.764,1489.613,524.618,1489.477,524.523z"
   id="path10" />
<path
   style="fill:#F18936;"
   d="M583.559,1715.15c-0.18-0.127-0.4-0.151-0.609-0.063l-83.873,36.209l2.451-91.586  c0.005-0.275-0.166-0.521-0.424-0.608c-0.263-0.088-0.551,0.007-0.706,0.229l-44.59,62.528c-0.059,0.083-0.098,0.178-0.112,0.275  c-0.136,0.999-14.105,100.729-25.262,185.973c-0.044,0.319,0.17,0.619,0.482,0.689c19.357,4.273,37.34,12.772,53.452,25.265  c0.107,0.085,0.243,0.132,0.379,0.132c0.029,0,0.059-0.003,0.093-0.008c0.166-0.024,0.317-0.116,0.414-0.253l92.351-129.516  c0.068-0.095,0.107-0.204,0.117-0.318l6.1-88.395C583.836,1715.486,583.734,1715.276,583.559,1715.15z"
   id="path11" />
<g
   id="g14">
	<path
   style="fill:#392841;"
   d="M431.188,1907.578c-0.19-0.044-0.351-0.002-0.497,0.098c-0.141,0.103-0.234,0.259-0.258,0.431   c-8.969,68.745-13.671,109.23-13.968,120.332c-0.005,0.275,0.166,0.521,0.424,0.608c0.068,0.022,0.131,0.032,0.2,0.032   c0.2,0,0.39-0.095,0.507-0.261l67.659-94.887c0.195-0.273,0.142-0.65-0.126-0.855   C468.874,1920.47,450.726,1911.893,431.188,1907.578z"
   id="path12" />
	<path
   style="fill:#392841;"
   d="M1373.111,353.873c-0.141-0.1-0.312-0.151-0.463-0.107c-0.166,0.027-0.312,0.117-0.404,0.251   l-27.762,38.935c-0.793,1.108-1.51,2.373-2.201,3.861c-0.137,0.289-0.249,0.584-0.361,0.876l-0.141,0.368   c-0.396,0.997-0.707,1.944-0.95,2.902c-0.122,0.467-0.229,0.933-0.326,1.411c-0.19,1.016-0.312,2.039-0.376,3.128l-0.033,0.39   c-0.024,0.244-0.044,0.487-0.059,0.806c-0.005,0.081-0.015,0.161-0.015,0.241c0,1.092,0.097,2.249,0.302,3.637   c0.044,0.286,0.098,0.568,0.156,0.889c0.277,1.472,0.618,2.755,1.052,3.925c0.024,0.076,0.059,0.148,0.156,0.363   c0.448,1.167,1.019,2.339,1.69,3.474l0.098,0.182c0.098,0.176,0.194,0.349,0.302,0.512c0.706,1.132,1.54,2.233,2.476,3.267   c0.146,0.165,0.307,0.326,0.463,0.487l0.131,0.134c1.165,1.199,2.208,2.119,3.294,2.892l138.616,98.84   c0.107,0.081,0.233,0.117,0.36,0.117c0.194,0,0.385-0.09,0.507-0.26l41.446-58.122c0.099-0.137,0.137-0.303,0.107-0.466   c-0.023-0.163-0.116-0.309-0.253-0.404L1373.111,353.873z"
   id="path13" />
	<path
   style="fill:#392841;"
   d="M1629.067,328.765l-137.105-97.766l-1.521-1.077c-1.111-0.797-2.378-1.52-3.863-2.207   c-0.278-0.127-0.561-0.236-0.838-0.344l-0.395-0.153c-1.009-0.399-1.964-0.712-2.914-0.955c-0.463-0.117-0.926-0.229-1.394-0.319   c-1.003-0.195-2.036-0.319-3.157-0.385l-0.399-0.034c-0.233-0.022-0.462-0.044-0.784-0.054c-0.083-0.01-0.16-0.017-0.238-0.017   c-1.102,0-2.262,0.098-3.649,0.307c-0.249,0.037-0.487,0.081-0.848,0.146c-1.491,0.282-2.792,0.628-3.981,1.066l-0.268,0.118   c-1.174,0.446-2.344,1.013-3.576,1.737l-0.258,0.146c-0.127,0.071-0.254,0.144-0.38,0.222c-1.141,0.714-2.246,1.554-3.289,2.494   c-0.161,0.144-0.316,0.295-0.473,0.446l-0.127,0.126c-1.193,1.15-2.119,2.202-2.903,3.306l-24.186,33.915   c-0.097,0.137-0.136,0.302-0.107,0.465c0.025,0.164,0.117,0.31,0.254,0.405l157.808,112.525c0.107,0.081,0.233,0.117,0.36,0.117   c0.195,0,0.385-0.09,0.507-0.261l37.87-53.101c0.099-0.137,0.137-0.302,0.107-0.465   C1629.296,329.006,1629.204,328.859,1629.067,328.765z"
   id="path14" />
<ellipse
   style="fill:none;fill-opacity:1;stroke:none;stroke-linecap:square;stroke-linejoin:round"
   id="tip"
   ry="4.8527832"
   rx="2.368"
   cy="2026.8655"
   cx="418.59164" /></g>
<path
   style="fill:#CC123A;"
   d="M1591.196,381.868l-157.808-112.526c-0.272-0.205-0.667-0.139-0.867,0.144l-60.277,84.531  c-0.097,0.136-0.137,0.302-0.107,0.465c0.025,0.164,0.117,0.31,0.254,0.405l157.812,112.528c0.107,0.078,0.234,0.117,0.361,0.117  c0.034,0,0.068-0.002,0.103-0.01c0.165-0.027,0.312-0.117,0.403-0.25l60.273-84.534  C1591.542,382.455,1591.479,382.067,1591.196,381.868z"
   id="path15" />
<path
   style="fill:#E84B0F;"
   d="M1331.815,620.864l-10.67-7.605c-0.272-0.207-0.667-0.141-0.867,0.143L596.884,1627.891  c-0.2,0.28-0.136,0.67,0.146,0.87l10.67,7.61c0.107,0.077,0.233,0.116,0.36,0.116c0.035,0,0.068-0.002,0.102-0.01  c0.166-0.026,0.312-0.117,0.405-0.251l723.395-1014.493c0.098-0.136,0.136-0.302,0.107-0.465  C1332.045,621.105,1331.952,620.959,1331.815,620.864z"
   id="path16" />
<path
   style="fill:#FAD4D3;"
   d="M1827.532,244.382c-6.241-5.516-15.547-8.203-24.229-7.02c-7.474,1.013-13.604,4.66-17.257,10.268  c-3.528,5.397-4.595,11.902-5.628,18.194l-0.395,2.36c-4.233,24.775-14.256,48.631-28.989,68.989  c-1.276,1.769-2.597,3.52-3.917,5.274c-5.009,6.646-10.188,13.52-13.164,21.428c-4.37,11.61-1.335,24.312,7.381,30.884  c3.396,2.558,7.27,3.83,11.323,3.83c4.838,0,9.934-1.815,14.771-5.408c6.349-4.719,11.752-12.068,16.97-19.177  c2.022-2.75,3.927-5.35,5.827-7.695c9.803-12.139,19.313-24.801,28.273-37.64c8.633-12.375,17.339-25.751,20.638-41.186  C1842.724,270.701,1838.164,253.783,1827.532,244.382z"
   id="path17" />
</svg>
